<svg width="48" height="48" viewBox="0 0 48 48" fill="none" xmlns="http://www.w3.org/2000/svg">
<path d="M8 36V16H16.2581L18.3226 12H30L32.7742 16H40V36H8Z" stroke="#5E5E5E" stroke-width="2"/>
<mask id="path-2-inside-1_2082_2649" fill="white">
<path d="M30 26C30 29.3137 27.3137 32 24 32C20.6863 32 18 29.3137 18 26C18 22.6863 20.6863 20 24 20C27.3137 20 30 22.6863 30 26ZM20.1 26C20.1 28.1539 21.8461 29.9 24 29.9C26.1539 29.9 27.9 28.1539 27.9 26C27.9 23.8461 26.1539 22.1 24 22.1C21.8461 22.1 20.1 23.8461 20.1 26Z"/>
</mask>
<path d="M30 26C30 29.3137 27.3137 32 24 32C20.6863 32 18 29.3137 18 26C18 22.6863 20.6863 20 24 20C27.3137 20 30 22.6863 30 26ZM20.1 26C20.1 28.1539 21.8461 29.9 24 29.9C26.1539 29.9 27.9 28.1539 27.9 26C27.9 23.8461 26.1539 22.1 24 22.1C21.8461 22.1 20.1 23.8461 20.1 26Z" fill="#5E5E5E" stroke="#5E5E5E" stroke-width="4" mask="url(#path-2-inside-1_2082_2649)"/>
</svg>
