<svg width="36" height="36" viewBox="0 0 36 36" fill="none" xmlns="http://www.w3.org/2000/svg">
<g id="icon/image add">
<path id="Vector" d="M4.5 24L10.1842 18L13.0263 21L21.5526 12L31.5 22.5M3 30V6C3 4.34315 4.34315 3 6 3H30C31.6569 3 33 4.34315 33 6V30C33 31.6569 31.6569 33 30 33H6C4.34315 33 3 31.6569 3 30ZM11.25 13.5C10.0074 13.5 9 12.4926 9 11.25C9 10.0074 10.0074 9 11.25 9C12.4926 9 13.5 10.0074 13.5 11.25C13.5 12.4926 12.4926 13.5 11.25 13.5Z" stroke="#404145" stroke-width="2.25" stroke-linecap="round" stroke-linejoin="round"/>
</g>
</svg>
