<svg width="382" height="107" viewBox="0 0 382 107" fill="none" xmlns="http://www.w3.org/2000/svg">
<path d="M39.7474 0H60.4091V61.1429H39.7474V0ZM20.6617 61.1429H0V0H20.6617V61.1429ZM41.1482 38.6073H19.2609V21.662H41.1482V38.6073ZM89.275 22.7102H116.59V37.5592H89.275V22.7102ZM90.6758 45.5951H121.318V61.1429H70.3643V0H120.18V15.5478H90.6758V45.5951ZM129.272 61.1429V0H149.934V45.1584H177.6V61.1429H129.272ZM183.307 61.1429V0H212.811C218.531 0 223.462 0.931687 227.607 2.7951C231.809 4.65852 235.048 7.33714 237.325 10.831C239.601 14.2667 240.739 18.3429 240.739 23.0596C240.739 27.7763 239.601 31.8524 237.325 35.2882C235.048 38.724 231.809 41.4025 227.607 43.3241C223.462 45.1876 218.531 46.1192 212.811 46.1192H194.776L203.968 37.2971V61.1429H183.307ZM203.968 39.5682L194.776 30.222H211.498C214.357 30.222 216.458 29.5815 217.801 28.3004C219.202 27.0193 219.902 25.2724 219.902 23.0596C219.902 20.8468 219.202 19.0998 217.801 17.8188C216.458 16.5377 214.357 15.8971 211.498 15.8971H194.776L203.968 6.55102V39.5682ZM247.515 61.1429V0H264.5L289.014 39.9176H280.084L303.897 0H320.882L321.057 61.1429H302.234L302.059 28.3004H305.035L288.751 55.64H279.646L262.661 28.3004H266.338V61.1429H247.515ZM349.957 22.7102H377.272V37.5592H349.957V22.7102ZM351.358 45.5951H382V61.1429H331.046V0H380.862V15.5478H351.358V45.5951Z" fill="#27282A"/>
<path d="M21.995 81.754H24.5863V106.821H21.995V81.754ZM6.44685 106.821H3.82V81.754H6.44685V106.821ZM22.2435 95.2544H6.16287V92.9267H22.2435V95.2544ZM43.6301 107C41.6897 107 39.9858 106.594 38.5184 105.782C37.051 104.947 35.9035 103.813 35.0751 102.381C34.2469 100.924 33.8327 99.2651 33.8327 97.4029C33.8327 95.5408 34.2232 93.8936 35.0041 92.4612C35.8086 91.0288 36.8975 89.9066 38.2699 89.095C39.6663 88.2593 41.2282 87.8417 42.9556 87.8417C44.707 87.8417 46.257 88.2477 47.6059 89.0592C48.9783 89.8471 50.0552 90.9693 50.8362 92.4254C51.6172 93.8578 52.0076 95.5171 52.0076 97.4029C52.0076 97.5225 51.9956 97.6536 51.9721 97.7969C51.9721 97.9164 51.9721 98.0475 51.9721 98.1908H35.7495V96.2928H50.6232L49.6293 97.0448C49.6293 95.6841 49.3333 94.4786 48.7418 93.428C48.1738 92.3537 47.3929 91.518 46.3989 90.9214C45.405 90.3247 44.2571 90.0261 42.9556 90.0261C41.6777 90.0261 40.5298 90.3247 39.5123 90.9214C38.4949 91.518 37.7019 92.3537 37.134 93.428C36.566 94.5023 36.282 95.732 36.282 97.1165V97.5104C36.282 98.9428 36.5895 100.208 37.205 101.306C37.8439 102.381 38.7194 103.228 39.8318 103.849C40.9678 104.445 42.2577 104.744 43.7011 104.744C44.837 104.744 45.89 104.541 46.8604 104.135C47.8544 103.729 48.7063 103.109 49.4163 102.273L50.8362 103.92C50.0078 104.923 48.9668 105.687 47.7124 106.212C46.4819 106.737 45.121 107 43.6301 107ZM71.8466 106.821V102.667L71.7401 101.987V95.0395C71.7401 93.4401 71.2901 92.2105 70.3912 91.3511C69.5152 90.4916 68.2018 90.0619 66.4509 90.0619C65.2439 90.0619 64.096 90.2647 63.0076 90.6707C61.9187 91.0767 60.9957 91.6138 60.2387 92.2821L59.1028 90.3842C60.0493 89.5727 61.1852 88.9518 62.5106 88.5221C63.8356 88.0686 65.232 87.8417 66.6994 87.8417C69.1132 87.8417 70.9707 88.4505 72.2725 89.668C73.5975 90.8618 74.2604 92.6881 74.2604 95.1469V106.821H71.8466ZM65.4214 107C64.025 107 62.8061 106.773 61.7651 106.32C60.7472 105.842 59.9663 105.197 59.4223 104.386C58.8778 103.55 58.6058 102.595 58.6058 101.521C58.6058 100.542 58.8303 99.659 59.2803 98.8712C59.7533 98.0596 60.5107 97.415 61.5522 96.9374C62.6171 96.4361 64.037 96.1854 65.8119 96.1854H72.237V98.0833H65.8829C64.084 98.0833 62.8301 98.4056 62.1201 99.0502C61.4337 99.6948 61.0907 100.495 61.0907 101.449C61.0907 102.524 61.5047 103.383 62.3331 104.028C63.1611 104.672 64.321 104.995 65.8119 104.995C67.2318 104.995 68.4503 104.672 69.4682 104.028C70.5092 103.359 71.2666 102.404 71.7401 101.163L72.308 102.918C71.8346 104.159 71.0062 105.15 69.8232 105.89C68.6633 106.63 67.1963 107 65.4214 107ZM84.6556 106.821V80.25H87.1759V106.821H84.6556ZM103.735 107C101.984 107 100.635 106.522 99.6885 105.568C98.7416 104.613 98.2686 103.264 98.2686 101.521V83.8668H100.789V101.378C100.789 102.476 101.061 103.324 101.605 103.92C102.173 104.517 102.978 104.816 104.019 104.816C105.131 104.816 106.054 104.493 106.788 103.849L107.676 105.675C107.179 106.128 106.575 106.463 105.865 106.678C105.179 106.893 104.469 107 103.735 107ZM94.9318 90.1335V88.0207H106.469V90.1335H94.9318ZM125.327 87.8417C126.841 87.8417 128.167 88.1403 129.303 88.7369C130.462 89.3099 131.362 90.1931 132.001 91.3869C132.663 92.5807 132.995 94.0847 132.995 95.8989V106.821H130.474V96.1496C130.474 94.168 129.977 92.676 128.983 91.6734C128.013 90.647 126.64 90.1335 124.865 90.1335C123.54 90.1335 122.381 90.4079 121.387 90.9572C120.416 91.4822 119.659 92.2584 119.115 93.2848C118.594 94.2875 118.334 95.505 118.334 96.9374V106.821H115.813V80.25H118.334V93.1774L117.837 92.2105C118.428 90.8497 119.375 89.7875 120.677 89.0234C121.978 88.2356 123.528 87.8417 125.327 87.8417ZM156.725 106.821V81.754H166.025C168.131 81.754 169.942 82.1 171.457 82.7925C172.971 83.4608 174.13 84.4398 174.935 85.7289C175.763 86.9943 176.178 88.5342 176.178 90.3484C176.178 92.1152 175.763 93.6429 174.935 94.9321C174.13 96.1975 172.971 97.176 171.457 97.8685C169.942 98.5609 168.131 98.907 166.025 98.907H158.18L159.352 97.6536V106.821H156.725ZM159.352 97.8685L158.18 96.5793H165.954C168.439 96.5793 170.321 96.0422 171.599 94.9679C172.9 93.8698 173.551 92.33 173.551 90.3484C173.551 88.343 172.9 86.7911 171.599 85.6931C170.321 84.5951 168.439 84.0459 165.954 84.0459H158.18L159.352 82.7925V97.8685ZM184.424 106.821V88.0207H186.838V93.1416L186.59 92.2463C187.11 90.8139 187.986 89.7275 189.217 88.9876C190.447 88.2235 191.974 87.8417 193.796 87.8417V90.3126C193.701 90.3126 193.606 90.3126 193.512 90.3126C193.417 90.2889 193.322 90.2768 193.228 90.2768C191.264 90.2768 189.725 90.8855 188.613 92.1031C187.501 93.2969 186.945 95.0037 186.945 97.2239V106.821H184.424ZM209.368 107C207.569 107 205.948 106.594 204.505 105.782C203.085 104.947 201.96 103.813 201.132 102.381C200.304 100.924 199.89 99.2651 199.89 97.4029C199.89 95.5171 200.304 93.8578 201.132 92.4254C201.96 90.993 203.085 89.8708 204.505 89.0592C205.925 88.2477 207.546 87.8417 209.368 87.8417C211.214 87.8417 212.847 88.2477 214.267 89.0592C215.71 89.8708 216.834 90.993 217.639 92.4254C218.467 93.8578 218.881 95.5171 218.881 97.4029C218.881 99.2651 218.467 100.924 217.639 102.381C216.834 103.813 215.71 104.947 214.267 105.782C212.823 106.594 211.19 107 209.368 107ZM209.368 104.744C210.717 104.744 211.912 104.445 212.953 103.849C213.994 103.228 214.811 102.368 215.403 101.27C216.018 100.148 216.326 98.8591 216.326 97.4029C216.326 95.9227 216.018 94.6335 215.403 93.5355C214.811 92.4374 213.994 91.5897 212.953 90.993C211.912 90.3721 210.728 90.0619 209.403 90.0619C208.078 90.0619 206.895 90.3721 205.854 90.993C204.812 91.5897 203.984 92.4374 203.369 93.5355C202.753 94.6335 202.446 95.9227 202.446 97.4029C202.446 98.8591 202.753 100.148 203.369 101.27C203.984 102.368 204.812 103.228 205.854 103.849C206.895 104.445 208.066 104.744 209.368 104.744ZM233.469 107C231.718 107 230.369 106.522 229.423 105.568C228.476 104.613 228.003 103.264 228.003 101.521V83.8668H230.523V101.378C230.523 102.476 230.795 103.324 231.339 103.92C231.907 104.517 232.712 104.816 233.753 104.816C234.865 104.816 235.788 104.493 236.522 103.849L237.41 105.675C236.913 106.128 236.309 106.463 235.599 106.678C234.913 106.893 234.203 107 233.469 107ZM224.666 90.1335V88.0207H236.203V90.1335H224.666ZM252.805 107C250.864 107 249.16 106.594 247.693 105.782C246.226 104.947 245.078 103.813 244.25 102.381C243.422 100.924 243.007 99.2651 243.007 97.4029C243.007 95.5408 243.398 93.8936 244.179 92.4612C244.984 91.0288 246.072 89.9066 247.444 89.095C248.841 88.2593 250.403 87.8417 252.13 87.8417C253.882 87.8417 255.432 88.2477 256.78 89.0592C258.153 89.8471 259.23 90.9693 260.011 92.4254C260.792 93.8578 261.182 95.5171 261.182 97.4029C261.182 97.5225 261.171 97.6536 261.147 97.7969C261.147 97.9164 261.147 98.0475 261.147 98.1908H244.924V96.2928H259.798L258.804 97.0448C258.804 95.6841 258.508 94.4786 257.916 93.428C257.348 92.3537 256.567 91.518 255.573 90.9214C254.58 90.3247 253.432 90.0261 252.13 90.0261C250.852 90.0261 249.705 90.3247 248.687 90.9214C247.669 91.518 246.876 92.3537 246.309 93.428C245.741 94.5023 245.457 95.732 245.457 97.1165V97.5104C245.457 98.9428 245.765 100.208 246.38 101.306C247.018 102.381 247.894 103.228 249.006 103.849C250.142 104.445 251.432 104.744 252.876 104.744C254.012 104.744 255.065 104.541 256.035 104.135C257.029 103.729 257.881 103.109 258.591 102.273L260.011 103.92C259.183 104.923 258.141 105.687 256.887 106.212C255.656 106.737 254.296 107 252.805 107ZM277.601 107C275.755 107 274.098 106.594 272.631 105.782C271.187 104.947 270.051 103.813 269.223 102.381C268.395 100.924 267.981 99.2651 267.981 97.4029C267.981 95.5171 268.395 93.8578 269.223 92.4254C270.051 90.993 271.187 89.8708 272.631 89.0592C274.098 88.2477 275.755 87.8417 277.601 87.8417C279.186 87.8417 280.618 88.1519 281.896 88.7728C283.174 89.3936 284.18 90.3247 284.913 91.5659L283.032 92.8551C282.393 91.9003 281.6 91.1958 280.654 90.7423C279.707 90.2889 278.677 90.0619 277.565 90.0619C276.24 90.0619 275.045 90.3721 273.98 90.993C272.915 91.5897 272.075 92.4374 271.46 93.5355C270.844 94.6335 270.537 95.9227 270.537 97.4029C270.537 98.8832 270.844 100.172 271.46 101.27C272.075 102.368 272.915 103.228 273.98 103.849C275.045 104.445 276.24 104.744 277.565 104.744C278.677 104.744 279.707 104.517 280.654 104.064C281.6 103.61 282.393 102.918 283.032 101.987L284.913 103.276C284.18 104.493 283.174 105.424 281.896 106.069C280.618 106.69 279.186 107 277.601 107ZM299.515 107C297.764 107 296.415 106.522 295.468 105.568C294.521 104.613 294.048 103.264 294.048 101.521V83.8668H296.569V101.378C296.569 102.476 296.841 103.324 297.385 103.92C297.953 104.517 298.758 104.816 299.799 104.816C300.911 104.816 301.834 104.493 302.568 103.849L303.455 105.675C302.958 106.128 302.355 106.463 301.645 106.678C300.959 106.893 300.249 107 299.515 107ZM290.712 90.1335V88.0207H302.248V90.1335H290.712ZM324.966 106.821V81.754H327.131L338.491 101.306H337.355L348.607 81.754H350.773V106.821H348.253V85.7289H348.856L338.491 103.634H337.248L326.812 85.7289H327.486V106.821H324.966ZM369.802 107C367.862 107 366.158 106.594 364.691 105.782C363.224 104.947 362.076 103.813 361.247 102.381C360.419 100.924 360.005 99.2651 360.005 97.4029C360.005 95.5408 360.395 93.8936 361.176 92.4612C361.981 91.0288 363.07 89.9066 364.442 89.095C365.839 88.2593 367.401 87.8417 369.128 87.8417C370.879 87.8417 372.429 88.2477 373.778 89.0592C375.151 89.8471 376.228 90.9693 377.009 92.4254C377.789 93.8578 378.18 95.5171 378.18 97.4029C378.18 97.5225 378.168 97.6536 378.144 97.7969C378.144 97.9164 378.144 98.0475 378.144 98.1908H361.922V96.2928H376.796L375.802 97.0448C375.802 95.6841 375.506 94.4786 374.914 93.428C374.346 92.3537 373.565 91.518 372.571 90.9214C371.577 90.3247 370.43 90.0261 369.128 90.0261C367.85 90.0261 366.703 90.3247 365.685 90.9214C364.667 91.518 363.874 92.3537 363.306 93.428C362.738 94.5023 362.454 95.732 362.454 97.1165V97.5104C362.454 98.9428 362.762 100.208 363.377 101.306C364.016 102.381 364.892 103.228 366.004 103.849C367.14 104.445 368.43 104.744 369.873 104.744C371.009 104.744 372.063 104.541 373.033 104.135C374.027 103.729 374.879 103.109 375.589 102.273L377.009 103.92C376.181 104.923 375.139 105.687 373.885 106.212C372.654 106.737 371.293 107 369.802 107Z" fill="#76797F"/>
</svg>
